<?xml version="1.0" standalone="no"?>
<!DOCTYPE svg PUBLIC "-//W3C//DTD SVG 20010904//EN"
 "http://www.w3.org/TR/2001/REC-SVG-20010904/DTD/svg10.dtd">
<svg version="1.0" xmlns="http://www.w3.org/2000/svg"
 width="512.000000pt" height="512.000000pt" viewBox="0 0 512.000000 512.000000"
 preserveAspectRatio="xMidYMid meet">
<metadata>
Created by potrace 1.14, written by Peter Selinger 2001-2017
</metadata>
<g transform="translate(0.000000,512.000000) scale(0.100000,-0.100000)"
fill="#000000" stroke="none">
<path d="M0 2560 l0 -2560 2560 0 2560 0 0 2560 0 2560 -2560 0 -2560 0 0
-2560z m3379 2165 c22 -43 65 -88 108 -115 15 -9 15 -12 4 -17 -31 -13 -99
-85 -116 -123 -10 -22 -21 -40 -25 -40 -3 0 -11 15 -18 33 -15 38 -43 72 -95
111 l-38 29 29 17 c37 22 101 98 108 127 9 33 16 29 43 -22z m-794 -65 c0 -84
0 -85 -25 -85 -24 0 -25 3 -28 74 -4 89 1 103 30 99 22 -3 23 -7 23 -88z
m-860 5 c14 -25 42 -56 60 -68 19 -12 35 -24 35 -27 0 -3 -16 -15 -35 -27 -18
-12 -46 -43 -61 -69 l-27 -46 -18 34 c-10 19 -36 51 -59 72 l-41 37 44 39 c24
22 50 53 57 70 7 16 14 30 15 30 2 0 15 -20 30 -45z m399 -163 c32 -120 31
-155 -6 -150 -20 3 -26 14 -41 78 -17 69 -17 75 -2 87 20 14 43 7 49 -15z
m932 -15 c-3 -12 -13 -57 -22 -102 -9 -44 -23 -85 -31 -92 -22 -17 -43 -5 -43
26 1 46 38 194 51 202 21 13 52 -10 45 -34z m-482 -43 c23 -9 24 -275 1 -294
-12 -10 -18 -10 -30 0 -20 17 -22 285 -2 293 6 3 13 6 14 6 1 1 8 -2 17 -5z
m-738 -311 c59 -86 108 -166 108 -177 1 -14 -6 -22 -20 -24 -18 -3 -42 26
-133 157 -105 152 -120 179 -104 194 22 23 48 -3 149 -150z m1602 135 c2 -10
-47 -90 -108 -178 -92 -132 -116 -161 -134 -158 -14 2 -21 10 -20 24 0 11 49
91 109 178 87 127 112 156 129 154 11 -2 22 -11 24 -20z m-1260 -51 c15 -17
74 -291 70 -320 -4 -28 -44 -36 -52 -10 -11 36 -66 297 -66 314 0 15 12 26 31
28 4 1 11 -5 17 -12z m1622 -106 l40 -29 -36 -27 c-20 -15 -49 -48 -64 -72
l-28 -44 -18 36 c-9 20 -36 53 -60 72 l-43 36 37 27 c21 15 49 48 62 73 l25
47 23 -45 c12 -25 40 -58 62 -74z m-831 45 c9 -10 6 -42 -14 -132 -34 -158
-33 -156 -58 -152 -32 4 -32 32 -3 165 28 127 46 155 75 119z m-1559 -77 c0
-22 63 -101 101 -126 l39 -26 -27 -17 c-39 -23 -96 -89 -112 -128 l-14 -33
-17 38 c-17 40 -66 95 -110 126 -19 13 -21 19 -11 24 30 12 89 75 112 117 21
40 39 52 39 25z m1178 -235 c2 -143 0 -173 -13 -184 -12 -10 -18 -10 -30 0
-12 10 -15 43 -15 180 0 91 3 170 7 174 4 4 16 6 28 4 19 -3 20 -11 23 -174z
m-632 -145 c130 -23 316 -98 423 -172 24 -16 75 -57 113 -89 l68 -59 68 59
c125 108 247 176 397 225 113 37 182 47 316 47 l117 0 6 -37 c3 -21 8 -67 11
-103 l6 -65 62 0 62 0 3 -57 3 -58 53 0 c89 0 82 26 132 -512 24 -260 44 -483
44 -495 0 -13 -9 -32 -20 -43 -18 -18 -33 -20 -139 -20 -308 0 -589 -68 -878
-211 l-162 -81 -93 4 c-92 3 -94 3 -193 61 -242 139 -525 213 -859 224 -156 5
-181 8 -197 24 -11 11 -19 29 -19 42 0 12 20 235 44 495 50 538 43 512 132
512 l53 0 3 58 3 57 62 0 62 0 6 65 c3 36 8 82 11 103 l6 37 117 0 c65 0 144
-5 177 -11z m454 -2444 l0 -385 -45 0 -45 0 0 385 0 385 45 0 45 0 0 -385z
m258 323 l-3 -43 -47 -3 -48 -3 0 45 0 46 51 0 50 0 -3 -42z m-1700 -10 l3
-38 -195 0 -196 0 0 -110 0 -110 191 0 190 0 -3 -37 -3 -38 -187 -3 -188 -2 0
-140 0 -140 195 0 195 0 0 -40 0 -40 -245 0 -245 0 0 363 c0 200 3 367 7 371
4 3 113 5 242 4 l236 -3 3 -37z m2444 -65 l3 -78 98 -3 97 -3 0 -34 0 -35
-100 0 -100 0 0 -142 c1 -246 15 -274 133 -265 l67 4 0 -37 c0 -45 -11 -50
-111 -50 -77 0 -120 22 -153 80 -19 31 -21 55 -25 223 l-3 187 -29 0 c-26 0
-29 3 -29 34 0 32 3 35 32 38 l31 3 -2 78 -2 77 45 0 45 0 3 -77z m-1956 -84
c26 -12 53 -36 66 -57 22 -35 23 -48 26 -264 l3 -228 -45 0 -46 0 0 195 c0
258 -11 285 -114 285 -51 0 -87 -12 -133 -43 l-33 -22 0 -207 0 -208 -45 0
-45 0 0 275 0 275 45 0 c43 0 45 -1 45 -30 l0 -30 40 26 c85 56 165 68 236 33z
m554 1 c30 -10 56 -15 58 -9 2 5 21 9 43 9 l40 0 -3 -298 c-3 -297 -3 -298
-29 -347 -18 -35 -39 -59 -74 -80 -47 -29 -53 -30 -164 -30 -141 1 -161 9
-161 65 0 46 -3 45 70 25 166 -45 270 6 270 132 l0 52 -56 -30 c-63 -33 -150
-39 -207 -15 -84 34 -133 143 -125 277 12 204 158 312 338 249z m1065 10 c33
-5 72 -15 88 -21 24 -10 27 -16 27 -60 l0 -49 -52 27 c-44 23 -66 27 -131 28
-74 0 -80 -2 -103 -28 -55 -64 -21 -107 108 -136 158 -37 198 -70 198 -165 0
-67 -28 -108 -95 -142 -45 -22 -68 -26 -133 -26 -47 1 -100 8 -133 19 l-54 18
-3 53 c-2 28 0 52 3 52 4 0 19 -8 33 -19 39 -27 116 -51 167 -51 80 0 125 30
125 84 0 47 -25 65 -136 92 -116 29 -150 47 -175 94 -51 95 13 206 132 229 61
12 66 12 134 1z m976 -21 c72 -40 109 -113 109 -216 l0 -53 -199 0 c-110 0
-202 -4 -205 -9 -10 -16 21 -112 45 -137 41 -44 78 -58 154 -58 59 0 80 5 133
31 l62 31 0 -48 0 -49 -66 -21 c-41 -12 -94 -20 -139 -20 -127 0 -205 43 -252
138 -24 50 -28 69 -28 147 0 78 4 97 28 147 50 102 136 151 254 144 40 -2 76
-12 104 -27z m-1391 -264 l0 -275 -45 0 -45 0 0 275 0 275 45 0 45 0 0 -275z
m1710 240 c0 -19 2 -35 4 -35 3 0 28 15 57 32 42 27 64 33 120 36 l69 4 0 -46
0 -46 -72 0 c-60 0 -82 -5 -123 -28 l-50 -27 -3 -203 -2 -202 -45 0 -45 0 0
275 0 275 45 0 c45 0 45 0 45 -35z"/>
<path d="M3329 4624 l-23 -24 22 -22 22 -22 21 21 22 21 -20 26 -20 25 -24
-25z"/>
<path d="M1684 4579 c-10 -17 13 -36 27 -22 12 12 4 33 -11 33 -5 0 -12 -5
-16 -11z"/>
<path d="M3705 4090 c-4 -6 -3 -16 3 -22 6 -6 12 -6 17 2 4 6 3 16 -3 22 -6 6
-12 6 -17 -2z"/>
<path d="M1376 3951 c-17 -18 -17 -21 0 -46 l17 -26 23 22 c22 21 22 23 6 45
-21 29 -24 29 -46 5z"/>
<path d="M1716 3638 c-10 -31 -85 -973 -78 -979 4 -3 34 -12 67 -19 250 -52
598 -220 767 -369 25 -23 49 -41 52 -41 3 0 6 245 6 544 l0 543 -52 50 c-191
180 -439 283 -686 283 -49 0 -74 -4 -76 -12z"/>
<path d="M3180 3639 c-196 -33 -387 -130 -537 -272 l-53 -50 0 -543 c0 -299 3
-544 6 -544 3 0 27 18 52 41 170 150 522 319 771 370 35 8 65 18 67 24 2 5
-16 228 -39 495 l-42 485 -85 2 c-47 0 -110 -3 -140 -8z"/>
<path d="M1574 3436 c-4 -13 -84 -862 -84 -898 0 -24 3 -25 83 -31 313 -25
619 -136 877 -318 l85 -59 -50 46 c-198 186 -502 338 -815 408 l-105 23 3 39
c1 22 16 195 32 387 37 428 37 403 4 410 -14 2 -27 0 -30 -7z"/>
<path d="M3513 3442 c-29 -4 -30 14 7 -409 16 -192 31 -365 32 -387 l3 -39
-105 -23 c-313 -70 -617 -222 -815 -408 l-50 -46 85 59 c258 182 564 293 878
318 79 6 82 7 82 31 0 57 -82 897 -88 903 -4 3 -17 3 -29 1z"/>
<path d="M1426 3288 c-4 -24 -22 -216 -41 -428 -19 -212 -37 -404 -40 -426
l-6 -41 128 -7 c346 -19 615 -82 849 -201 118 -60 123 -59 24 5 -229 147 -599
260 -854 260 -60 0 -66 2 -66 21 0 20 50 558 70 749 10 101 7 110 -37 110 -18
0 -23 -7 -27 -42z"/>
<path d="M3633 3322 c-9 -6 -10 -30 -3 -102 20 -191 70 -729 70 -749 0 -19 -6
-21 -66 -21 -195 0 -481 -71 -689 -170 -91 -44 -255 -143 -255 -154 0 -3 37
15 83 39 236 126 502 195 835 217 l173 11 -6 41 c-3 23 -21 214 -40 426 -44
494 -41 470 -68 470 -12 0 -27 -4 -34 -8z"/>
<path d="M1854 1340 c-55 -28 -84 -81 -90 -167 -11 -161 76 -246 207 -201 19
6 46 20 62 30 l27 19 0 154 0 154 -52 16 c-69 20 -105 19 -154 -5z"/>
<path d="M3881 1360 c-62 -15 -115 -71 -123 -130 l-3 -25 158 -3 157 -3 0 33
c0 38 -29 91 -62 111 -31 20 -85 27 -127 17z"/>
</g>
</svg>
